<svg width="720" height="720" viewBox="0 0 720 720" fill="none" xmlns="http://www.w3.org/2000/svg">
  <defs>
    <linearGradient id="heroBg" x1="64" y1="54" x2="670" y2="680" gradientUnits="userSpaceOnUse">
      <stop offset="0%" stop-color="#14063B" />
      <stop offset="100%" stop-color="#050117" />
    </linearGradient>
    <linearGradient id="heroGrad" x1="142" y1="146" x2="560" y2="574" gradientUnits="userSpaceOnUse">
      <stop offset="0%" stop-color="#7A68FF" />
      <stop offset="48%" stop-color="#4EA5FF" />
      <stop offset="100%" stop-color="#FF4FD8" />
    </linearGradient>
  </defs>

  <rect width="720" height="720" rx="52" fill="url(#heroBg)" />
  <circle cx="556" cy="164" r="128" fill="#FF4FD8" opacity="0.16" />
  <circle cx="150" cy="546" r="118" fill="#4EA5FF" opacity="0.16" />
  <circle cx="360" cy="110" r="72" fill="#7A68FF" opacity="0.14" />

  <rect x="130" y="214" width="460" height="304" rx="34" fill="#17124A" />
  <rect x="162" y="246" width="398" height="48" rx="22" fill="#231C64" />
  <rect x="162" y="314" width="226" height="144" rx="28" fill="#271E73" />
  <rect x="406" y="314" width="154" height="66" rx="24" fill="#201859" />
  <rect x="406" y="394" width="154" height="64" rx="24" fill="#201859" />

  <path d="M196 482H524" stroke="#EEF2FF" stroke-opacity="0.22" stroke-width="10" stroke-linecap="round" />
  <path d="M194 276H410" stroke="#EEF2FF" stroke-opacity="0.28" stroke-width="14" stroke-linecap="round" />

  <path
    d="M208 403C232 360 266 332 312 332C360 332 394 362 430 404C464 446 488 470 528 470C554 470 576 454 576 426C576 398 556 378 528 378C490 378 464 402 430 444C392 490 358 520 306 520C256 520 214 480 208 432"
    stroke="url(#heroGrad)"
    stroke-width="22"
    stroke-linecap="round"
    stroke-linejoin="round"
  />

  <circle cx="254" cy="280" r="14" fill="#7A68FF" />
  <circle cx="294" cy="280" r="14" fill="#4EA5FF" />
  <circle cx="334" cy="280" r="14" fill="#FF4FD8" />
</svg>
