<svg width="120" height="120" viewBox="0 0 120 120" fill="none" xmlns="http://www.w3.org/2000/svg">
  <defs>
    <linearGradient id="bg" x1="12" y1="10" x2="108" y2="112" gradientUnits="userSpaceOnUse">
      <stop offset="0%" stop-color="#16063D" />
      <stop offset="100%" stop-color="#050117" />
    </linearGradient>
    <linearGradient id="flow" x1="18" y1="42" x2="102" y2="88" gradientUnits="userSpaceOnUse">
      <stop offset="0%" stop-color="#7A68FF" />
      <stop offset="52%" stop-color="#4EA5FF" />
      <stop offset="100%" stop-color="#FF4FD8" />
    </linearGradient>
    <radialGradient id="glow" cx="0" cy="0" r="1" gradientUnits="userSpaceOnUse" gradientTransform="translate(86 28) rotate(140) scale(38)">
      <stop offset="0%" stop-color="#FF4FD8" />
      <stop offset="100%" stop-color="#FF4FD8" stop-opacity="0" />
    </radialGradient>
  </defs>

  <rect width="120" height="120" rx="30" fill="url(#bg)" />
  <circle cx="86" cy="28" r="24" fill="url(#glow)" opacity="0.72" />
  <circle cx="28" cy="92" r="16" fill="#4EA5FF" opacity="0.16" />

  <path
    d="M18 66C23 56 30 48 41 48C52 48 58 57 66 66C74 76 80 84 91 84C100 84 106 77 106 67C106 57 99 50 90 50C80 50 74 57 66 67C58 77 52 86 41 86C29 86 20 78 18 66Z"
    stroke="url(#flow)"
    stroke-width="10"
    stroke-linecap="round"
    stroke-linejoin="round"
  />

  <path d="M38 34H79" stroke="#EEF2FF" stroke-width="8" stroke-linecap="round" opacity="0.9" />
  <path d="M86 34L96 44" stroke="#FF4FD8" stroke-width="8" stroke-linecap="round" />
</svg>
