<svg width="640" height="480" viewBox="0 0 640 480" fill="none" xmlns="http://www.w3.org/2000/svg">
  <defs>
    <linearGradient id="prodBg" x1="44" y1="38" x2="596" y2="438" gradientUnits="userSpaceOnUse">
      <stop offset="0%" stop-color="#120633" />
      <stop offset="100%" stop-color="#050117" />
    </linearGradient>
    <linearGradient id="prodGrad" x1="206" y1="82" x2="438" y2="150" gradientUnits="userSpaceOnUse">
      <stop offset="0%" stop-color="#7A68FF" />
      <stop offset="48%" stop-color="#4EA5FF" />
      <stop offset="100%" stop-color="#FF4FD8" />
    </linearGradient>
  </defs>

  <rect width="640" height="480" rx="40" fill="url(#prodBg)" />
  <circle cx="518" cy="132" r="76" fill="#FF4FD8" opacity="0.14" />
  <circle cx="146" cy="380" r="58" fill="#4EA5FF" opacity="0.14" />

  <rect x="168" y="118" width="304" height="220" rx="44" fill="#241C66" />
  <rect x="206" y="68" width="228" height="84" rx="32" fill="url(#prodGrad)" />

  <path d="M234 196H406" stroke="#EEF2FF" stroke-width="20" stroke-linecap="round" />
  <path d="M234 248H406" stroke="#EEF2FF" stroke-width="20" stroke-linecap="round" />
  <path d="M234 300H406" stroke="#EEF2FF" stroke-width="20" stroke-linecap="round" />

  <path d="M156 354C156 316 192 288 234 288H406C448 288 484 316 484 354V382H156V354Z" fill="#2D2480" />
  <path d="M240 384C240 400 252 412 268 412H372C388 412 400 400 400 384V348H240V384Z" fill="#FF4FD8" />
</svg>
